<?xml version="1.0" encoding="utf-8"?>

<!DOCTYPE svg PUBLIC "-//W3C//DTD SVG 1.1//EN" "http://www.w3.org/Graphics/SVG/1.1/DTD/svg11.dtd">
<!-- Uploaded to: SVG Repo, www.svgrepo.com, Generator: SVG Repo Mixer Tools -->
<svg version="1.1" id="Слой_1" xmlns="http://www.w3.org/2000/svg" xmlns:xlink="http://www.w3.org/1999/xlink" 
	 width="800px" height="800px" viewBox="0 0 64 64" enable-background="new 0 0 64 64" xml:space="preserve">
<g>
	<path fill="#BABD1A" d="M14,30c-2.757,0-5-2.243-5-5s2.243-5,5-5s5,2.243,5,5S16.757,30,14,30z M14,22c-1.654,0-3,1.346-3,3
		s1.346,3,3,3s3-1.346,3-3S15.654,22,14,22z"/>
</g>
<g>
	<path fill="#BABD1A" d="M50,30c-2.757,0-5-2.243-5-5s2.243-5,5-5s5,2.243,5,5S52.757,30,50,30z M50,22c-1.654,0-3,1.346-3,3
		s1.346,3,3,3s3-1.346,3-3S51.654,22,50,22z"/>
</g>
<g>
	<path fill="#BABD1A" d="M52.115,37h-40.23C6.985,37,3,33.015,3,28.115c0-0.06,0.005-0.119,0.016-0.177l1.611-8.957
		C4.938,17.253,6.438,16,8.193,16h47.613c1.756,0,3.256,1.254,3.566,2.982l1.611,8.957C60.995,27.997,61,28.056,61,28.115
		C61,33.015,57.015,37,52.115,37z M5.001,28.202C5.047,31.958,8.117,35,11.885,35h40.23c3.768,0,6.838-3.042,6.884-6.798
		l-1.595-8.866C57.266,18.561,56.594,18,55.807,18H8.193c-0.787,0-1.459,0.562-1.598,1.335L5.001,28.202z"/>
</g>
<g>
	<path fill="#BABD1A" d="M41,26H23c-0.553,0-1-0.448-1-1s0.447-1,1-1h18c0.553,0,1,0.448,1,1S41.553,26,41,26z"/>
</g>
<g>
	<path fill="#BABD1A" d="M32,29L27,29c-0.553,0-1-0.448-1-1s0.448-1,1-1l0,0L32,27L37,27c0.552,0,1,0.448,1,1s-0.447,1-1,1L32,29z"
		/>
</g>
<g>
	<path fill="#BABD1A" d="M54.001,13c-0.378,0-0.739-0.215-0.908-0.58c-0.072-0.156-0.637-1.172-4.853-7.678
		C47.128,3.025,45.242,2,43.194,2H20.851c-2.067,0-3.964,1.041-5.074,2.785l-4.933,7.751c-0.296,0.467-0.913,0.604-1.381,0.307
		c-0.466-0.296-0.604-0.915-0.307-1.38l4.933-7.752C15.568,1.388,18.097,0,20.851,0h22.344c2.729,0,5.242,1.366,6.725,3.654
		c4.62,7.13,4.897,7.729,4.988,7.926c0.232,0.501,0.014,1.095-0.487,1.328C54.284,12.971,54.142,13,54.001,13z"/>
</g>
<g>
	<path fill="#BABD1A" d="M63,13h-5c-0.553,0-1-0.448-1-1s0.447-1,1-1h5c0.553,0,1,0.448,1,1S63.553,13,63,13z"/>
</g>
<g>
	<path fill="#BABD1A" d="M6,13H1c-0.553,0-1-0.448-1-1s0.447-1,1-1h5c0.553,0,1,0.448,1,1S6.553,13,6,13z"/>
</g>
<g>
	<path fill="#BABD1A" d="M37,7H27c-0.553,0-1-0.448-1-1s0.447-1,1-1h10c0.553,0,1,0.448,1,1S37.553,7,37,7z"/>
</g>
<g>
	<path fill="#3D3427" d="M36,55h-8c-0.553,0-1-0.447-1-1V44c0-0.553,0.447-1,1-1h8c0.553,0,1,0.447,1,1v10
		C37,54.553,36.553,55,36,55z M29,53h6v-8h-6V53z"/>
</g>
<g>
	<path fill="#BABD1A" d="M41,64H23c-0.553,0-1-0.447-1-1v-5c0-0.553,0.447-1,1-1h18c0.553,0,1,0.447,1,1v5
		C42,63.553,41.553,64,41,64z M24,62h16v-3H24V62z"/>
</g>
<g>
	<path fill="#3D3427" d="M59,44c-0.42,0-0.811-0.266-0.949-0.686l-0.772-2.332H6.722l-0.772,2.332
		c-0.174,0.524-0.739,0.806-1.264,0.635c-0.524-0.174-0.809-0.739-0.635-1.264l1-3.018C5.187,39.259,5.569,38.982,6,38.982h52
		c0.431,0,0.813,0.276,0.949,0.686l1,3.018c0.174,0.524-0.11,1.09-0.635,1.264C59.21,43.983,59.104,44,59,44z"/>
</g>
<g>
	<path fill="#3D3427" d="M28,51c-0.256,0-0.512-0.098-0.707-0.293c-0.391-0.391-0.391-1.023,0-1.414l6-6
		c0.391-0.391,1.023-0.391,1.414,0s0.391,1.023,0,1.414l-6,6C28.512,50.902,28.256,51,28,51z"/>
</g>
<g>
	<path fill="#3D3427" d="M30,55c-0.256,0-0.512-0.098-0.707-0.293c-0.391-0.391-0.391-1.023,0-1.414l6-6
		c0.391-0.391,1.023-0.391,1.414,0s0.391,1.023,0,1.414l-6,6C30.512,54.902,30.256,55,30,55z"/>
</g>
<g>
	<path fill="#3D3427" d="M19.006,53c-0.553,0-1-0.447-1-1v-8c0-0.553,0.447-1,1-1s1,0.447,1,1v8C20.006,52.553,19.559,53,19.006,53z
		"/>
</g>
<g>
	<path fill="#3D3427" d="M19.006,58c-0.553,0-1-0.447-1-1v-2c0-0.553,0.447-1,1-1s1,0.447,1,1v2C20.006,57.553,19.559,58,19.006,58z
		"/>
</g>
<g>
	<path fill="#3D3427" d="M14.006,50c-0.553,0-1-0.447-1-1v-5.002c0-0.553,0.447-1,1-1s1,0.447,1,1V49
		C15.006,49.553,14.559,50,14.006,50z"/>
</g>
<g>
	<path fill="#3D3427" d="M14.006,60c-0.553,0-1-0.447-1-1v-7c0-0.553,0.447-1,1-1s1,0.447,1,1v7C15.006,59.553,14.559,60,14.006,60z
		"/>
</g>
<g>
	<path fill="#3D3427" d="M44.994,58c-0.553,0-1-0.447-1-1v-8c0-0.553,0.447-1,1-1s1,0.447,1,1v8C45.994,57.553,45.547,58,44.994,58z
		"/>
</g>
<g>
	<path fill="#3D3427" d="M44.994,47c-0.553,0-1-0.447-1-1v-2c0-0.553,0.447-1,1-1s1,0.447,1,1v2C45.994,46.553,45.547,47,44.994,47z
		"/>
</g>
<g>
	<path fill="#3D3427" d="M49.994,59.999c-0.553,0-1-0.447-1-1v-2c0-0.553,0.447-1,1-1s1,0.447,1,1v2
		C50.994,59.552,50.547,59.999,49.994,59.999z"/>
</g>
<g>
	<path fill="#3D3427" d="M49.994,54.999c-0.553,0-1-0.447-1-1V43.997c0-0.553,0.447-1,1-1s1,0.447,1,1v10.002
		C50.994,54.552,50.547,54.999,49.994,54.999z"/>
</g>
</svg>